<svg width="82" height="24" viewBox="0 0 82 24" fill="none" xmlns="http://www.w3.org/2000/svg">
<path fill-rule="evenodd" clip-rule="evenodd" d="M58.4342 12.0087C58.4342 18.6204 53.8589 24 46.5981 24C39.4865 24 34.762 18.603 34.762 11.9913C34.762 5.37961 39.3041 0 46.5981 0C53.9086 0 58.4342 5.39696 58.4342 12.0087ZM0.248658 0.468541H10.8912C20.0419 0.468541 23.6225 6.0911 23.6225 12.0434C23.6225 18.0998 19.0306 23.4967 10.2945 23.4967H0.265235C0.0828861 23.4967 0.0165772 23.3753 0.0165772 23.2711C0.0165772 23.1497 0.132618 23.0455 0.29839 23.0455H2.17162C2.75182 23.0455 3.13309 22.6811 3.13309 22.0043V1.99566C3.13309 1.4924 2.90101 0.937087 2.13846 0.937087H0.232081C0.0828861 0.937087 0 0.832966 0 0.711491C0 0.607369 0.0331544 0.468541 0.248658 0.468541ZM6.89565 22.4208C6.89565 22.9241 7.11115 23.0802 7.42612 23.0802H10.2443C17.1901 23.0802 19.7099 17.5097 19.7099 11.9219C19.7099 6.33403 17.0409 0.919713 11.1726 0.919713H7.34323C6.94538 0.919713 6.91222 1.26678 6.91222 1.42297L6.89565 22.4208ZM24.3683 0.676784C24.3683 0.537955 24.5175 0.468541 24.6833 0.468541V0.485894H33.6682C33.8671 0.485894 33.95 0.590016 33.95 0.711491C33.95 0.832966 33.8671 0.919734 33.7179 0.919734H32.0104C31.3805 0.919734 31.0324 1.30151 31.0324 1.87418V22.1085C31.0324 22.9067 31.7121 23.0629 31.9607 23.0629H33.7013C33.9334 23.0629 33.9666 23.2017 33.9666 23.3406C33.9666 23.4794 33.7842 23.4967 33.6516 23.4967H24.6335C24.399 23.4967 24.4004 23.3887 24.4014 23.3182L24.4015 23.3059C24.4015 23.2364 24.418 23.0629 24.6335 23.0629H26.4902C27.0207 23.0629 27.3191 22.4382 27.3191 22.0217V2.08242C27.3191 1.21474 26.9046 0.90238 26.4736 0.90238H24.6004C24.4512 0.90238 24.3683 0.815612 24.3683 0.676784ZM38.774 11.9913C38.774 5.62255 41.4927 0.468541 46.5984 0.468541C51.6048 0.468541 54.4229 5.62255 54.4229 11.9913C54.4229 18.3601 51.8534 23.5141 46.5984 23.5141C41.5092 23.5315 38.774 18.3601 38.774 11.9913ZM76.8026 18.3659L76.8026 18.3658C76.4435 17.6549 76.1052 16.9853 75.774 16.4512C74.6964 14.7332 72.4088 12.9805 70.1543 12.6334C73.8676 12.4078 78.0285 11.1583 78.0285 6.75054C78.0285 3.1757 75.9232 0.468541 68.1982 0.468541H59.2963C59.1802 0.468541 59.0642 0.537955 59.0642 0.676784C59.0642 0.815612 59.1802 0.90238 59.2963 0.90238H61.3352C61.7663 0.90238 62.1807 1.21474 62.1807 2.08242V22.0217C62.1807 22.4382 61.8823 23.0629 61.3518 23.0629H59.346C59.1802 23.0629 59.1139 23.2017 59.1139 23.2711C59.1139 23.3406 59.1802 23.4967 59.346 23.4967H68.795C68.9276 23.4967 69.0436 23.4273 69.0436 23.2885C69.0436 23.1497 68.9607 23.0629 68.7784 23.0629H66.872C66.6234 23.0629 65.9437 22.8894 65.9437 22.1085V12.6855H66.9218C70.1548 12.6855 71.3184 15.2254 72.4963 17.7966C73.0216 18.9432 73.5497 20.096 74.2654 21.0325C76.2547 23.6356 78.8573 23.9653 80.3327 23.9653C80.9626 23.9653 81.3936 23.9479 81.7915 23.8438C82.0401 23.757 82.0899 23.3059 81.6423 23.3579C79.4459 23.5985 78.007 20.75 76.8026 18.3659ZM68.2652 0.902344H66.8893C66.2594 0.902344 65.9113 1.28412 65.9113 1.87414V12.2342H67.9171C71.0502 12.2342 74.4319 10.7939 74.4319 6.5249C74.4319 1.87414 70.6192 0.902344 68.2652 0.902344Z" fill="black"/>
</svg>
