<svg width="20" height="20" viewBox="0 0 20 20" fill="none" xmlns="http://www.w3.org/2000/svg">
<path d="M6.47998 3.90999C7.02698 3.93244 7.55945 4.0927 8.02796 4.37591C8.49648 4.65912 8.88586 5.05609 9.15998 5.52999L9.99998 6.84999L10.83 5.51999C11.0913 5.04678 11.4711 4.64959 11.9322 4.36736C12.3932 4.08512 12.9197 3.92751 13.46 3.90999C13.8525 3.91055 14.2405 3.99363 14.5989 4.15385C14.9572 4.31407 15.2778 4.54784 15.54 4.83999C17.02 6.42999 16.87 8.61999 15.17 10.41L9.99998 15.66L4.77998 10.36C3.10998 8.50999 2.97998 6.35999 4.41998 4.82999C4.68076 4.54215 4.99857 4.31171 5.35322 4.15332C5.70786 3.99494 6.09158 3.91207 6.47998 3.90999ZM6.47998 2.90999C5.95446 2.91252 5.43519 3.02402 4.95496 3.23746C4.47474 3.45089 4.044 3.76161 3.68998 4.14999C1.93998 5.99999 1.99998 8.72999 3.99998 11L9.99998 17.06L15.9 11.06C18.06 8.78999 18.05 5.99999 16.3 4.10999C15.9407 3.71943 15.505 3.40692 15.0199 3.19188C14.5348 2.97684 14.0106 2.86387 13.48 2.85999C12.7635 2.88134 12.0651 3.09018 11.4545 3.46568C10.8438 3.84117 10.3423 4.3702 9.99998 4.99999C9.63809 4.38218 9.1253 3.86635 8.50965 3.5008C7.894 3.13526 7.19563 2.93197 6.47998 2.90999Z" fill="black"/>
</svg>
